<svg xmlns="http://www.w3.org/2000/svg" width="50" height="47.841" viewBox="0 0 50 47.841"><defs><style>.a{fill:#09388a;}.b{fill:#035ec8;}</style></defs><g transform="translate(0 0)"><path class="a" d="M601.26,487.842h1.429V506.1H601.26Zm-3.114-22.826a3.829,3.829,0,1,1,3.828,3.828A3.832,3.832,0,0,1,598.147,465.016Zm1.429,0a2.4,2.4,0,1,0,2.4-2.4A2.4,2.4,0,0,0,599.575,465.016ZM570.383,506.1h1.429V487.725h-1.429Zm-4.424,0h1.429V492.265H565.96Zm1.309-41.086a3.828,3.828,0,1,1,3.829,3.828A3.833,3.833,0,0,1,567.269,465.016Zm1.429,0a2.4,2.4,0,1,0,2.4-2.4A2.4,2.4,0,0,0,568.7,465.016ZM605.685,506.1h1.429V492.265h-1.429Zm1.566-36.441H598l-11.527-11.4-11.4,11.4h-9.25a4.291,4.291,0,0,0-4.286,4.286v15.212h5.852V474.077H565.96V487.73h-2.995V473.946a2.86,2.86,0,0,1,2.857-2.857h9.841l10.221-10.22V465.1l-11.078,11.078v7.12h-4.423v1.429h4.423V506.1h1.429V476.773l10.242-10.242,10.361,10.244V506.1h1.429V484.73h4.423V483.3h-4.423v-7.123l-10.954-10.83V461.1l10.1,9.986h9.839a2.86,2.86,0,0,1,2.857,2.857V487.73h-2.994V474.1h-1.429v15.059h5.851V473.946A4.29,4.29,0,0,0,607.25,469.66Z" transform="translate(-561.536 -458.261)"/><path class="b" d="M601.86,510.216h-1.429V482.082l-7.491-7.408-7.4,7.4v28.146h-1.429V481.479l8.82-8.819,8.926,8.826Zm-8.083-21.3h4.1v4.1h-4.1Zm1.429,2.674h1.245v-1.245h-1.245Zm-3.008,1.429h-4.1v-4.1h4.1Zm-1.429-2.674h-1.245v1.245h1.245Zm7.11-7.11v4.1h-4.1v-4.1Zm-1.429,1.429h-1.245v1.245h1.245Zm-4.253,2.674h-4.1v-4.1h4.1Zm-1.429-2.674h-1.245v1.245h1.245Zm2.932,11.712h4.178v13.836H588.1V496.379H593.7Zm-1.429,12.408V497.808h-2.749v10.979Zm1.429-10.979v10.979h2.749V497.808Z" transform="translate(-567.987 -462.375)"/></g></svg>