<svg xmlns="http://www.w3.org/2000/svg" width="50" height="49.333" viewBox="0 0 50 49.333"><defs><style>.a{fill:#035ec8;}.b{fill:#09388a;}</style></defs><g transform="translate(0 0)"><path class="a" d="M405.07,613.594a4.765,4.765,0,1,0-8.772,0l-6.536,17.959h1.48l6.013-16.521a4.785,4.785,0,0,0,1.761,1.156l-5.592,15.364h1.419v.167l.755-2.075,3.816,2.495-4.571,2.989v1.662l5.841-3.82,6.505,4.254H394.842V642.2l15.446-.133.811,2.226h5.142Zm-7.76-1.861a3.374,3.374,0,1,1,3.374,3.374A3.378,3.378,0,0,1,397.31,611.733Zm3.079,4.749c.1.006.2.016.3.016s.2-.009.3-.015l2.9,7.962H397.49Zm-3.4,9.354h7.4l.746,2.051h-8.892Zm.594,3.441h6.211l-3.106,2.031Zm4.376,2.862,3.816-2.5,2.384,6.551Zm-7.089,8.664-.017-2.187h14.188l.749,2.059Zm7.488-24.614a4.758,4.758,0,0,0,1.761-1.158L414.255,642.9h-2.182Z" transform="translate(-377.771 -594.956)"/><path class="b" d="M375.757,634.141h11.507v1.391H375.757Zm0-2.05h11.507V630.7H375.757Zm47.218-11.755a4.763,4.763,0,0,1-2.349,4.1v15.048h-4.833V624.436a4.753,4.753,0,0,1,0-8.2v-3.45h-.529l-4.379-6.309-10.374,2.969-.239-.656a4.687,4.687,0,0,0,.254-.795l9.521-2.724-5.345-7.7,0,0-27.658,7.914v9.234l2.051-.586v-3.9a2.4,2.4,0,0,1,2.355-2.416,2.461,2.461,0,0,1,1.748.686,2.394,2.394,0,0,1,.729,1.729v2.522l6.849-1.96-.587,1.614-6.261,1.792v12.558h6.12v12.736H372.975V626.748h6.119V615.573l-3.441.985V604.431l28.576-8.176a2.771,2.771,0,0,1,1.489-2.809c.3-.221,1.9-1.381,3.709-2.433a6.271,6.271,0,0,1,8.469,2.046,24.378,24.378,0,0,1,3.591,12.436v7.291h-.86v3.45A4.763,4.763,0,0,1,422.975,620.336Zm-42.489,6.412h2.05V610.222a1.017,1.017,0,0,0-.309-.734.972.972,0,0,0-.741-.291,1.019,1.019,0,0,0-1,1.024Zm-1.391,1.391h-4.729v9.954h14.29v-9.954h-9.561Zm36.9-16.744h2.217l1.886-.047v-5.832A22.96,22.96,0,0,0,416.72,593.8a4.882,4.882,0,0,0-6.6-1.589c-1.9,1.1-3.607,2.369-3.625,2.382l-.106.065a1.441,1.441,0,0,0-.546,2.114Zm2.217,1.391-1.026.026v2.874a4.658,4.658,0,0,1,2.051,0v-2.9Zm1.025,12.2a4.658,4.658,0,0,1-2.051,0v13.106h2.051Zm2.349-4.651a3.374,3.374,0,1,0-3.374,3.374A3.378,3.378,0,0,0,421.584,620.336Z" transform="translate(-372.975 -590.151)"/></g></svg>