<svg xmlns="http://www.w3.org/2000/svg" width="45.299" height="50" viewBox="0 0 45.299 50"><defs><style>.a{fill:#09388a;}.b{fill:#035ec8;}</style></defs><g transform="translate(0)"><path class="a" d="M377.961,510.271H358.1V513.4H354.76v1.429H381.3V513.4h-3.341Zm-1.429,3.134h-17V511.7h17Zm4.713-39.078v-1.8h1.9V469.4h2.393v-4.562h-4.769l-1.2,1.429h4.539v1.705H378.14l-1.2,1.429h4.775V471.1H375.51l-1.2,1.429h5.506V478.3c0,5.776-3.584,15.2-8.2,18.687-.061.046-.121.093-.178.139a6.144,6.144,0,0,0-1.724,7.2l.551,1.276H365.8l.551-1.276a6.141,6.141,0,0,0-1.721-7.2c-.059-.048-.119-.095-.179-.14-4.62-3.491-8.2-12.912-8.2-18.688v-5.769h5.505l-1.2-1.429h-6.114V469.4h4.684l-1.2-1.429h-5.969v-1.705h4.539l-1.2-1.429h-4.768V469.4h2.484v3.134h1.808v1.8h-9.436V480.6a15.383,15.383,0,0,0,15.366,15.366h.629a14.011,14.011,0,0,0,2.213,2.155l.139.11a4.708,4.708,0,0,1,1.31,5.524l-.795,1.842h-3.327v3.241h1.429v-1.813h11.372v1.813h1.429V505.6h-3.327l-.8-1.842a4.711,4.711,0,0,1,1.311-5.526l.139-.109a14,14,0,0,0,2.212-2.154h.629A15.383,15.383,0,0,0,390.68,480.6v-6.278Zm-23,16.792a10.716,10.716,0,0,1-8.306-10.421v-1.809h4.9A31.726,31.726,0,0,0,358.249,491.119ZM346.81,480.6v-4.849h8.007v1.705h-6.3V480.7a12.137,12.137,0,0,0,10.594,12.015c.366.629.747,1.233,1.146,1.8A13.943,13.943,0,0,1,346.81,480.6Zm34.414-1.716h4.894V480.7a10.714,10.714,0,0,1-8.3,10.421A31.72,31.72,0,0,0,381.224,478.889Zm8.028,1.716a13.94,13.94,0,0,1-13.442,13.908c.4-.568.776-1.167,1.139-1.791a12.145,12.145,0,0,0,10.6-12.024V477.46h-6.3v-1.705h8.006Z" transform="translate(-345.381 -464.833)"/><path class="b" d="M374.951,475.643a2.735,2.735,0,0,0,.214-3.114h1.991l6.458-7.7H373.569l-.827.986-.828-.986H361.868l6.458,7.7h1.137c.005-.041,0-.082.006-.123.046.041.094.081.138.123h.711a2.737,2.737,0,0,0,.214,3.115,7.96,7.96,0,1,0,4.419,0Zm5.6-9.381-4.06,4.839h-2.226l4.06-4.839Zm-9.3,0,.561.669-1.113,1.326-1.674-1.995Zm-2.6,4.432-3.719-4.432h2.226l2.606,3.106Zm5.584-4.432h2.225L372.4,471.1h-2.226Zm-1.494,9.048a1.383,1.383,0,1,1,1.382-1.383A1.384,1.384,0,0,1,372.742,475.309Zm0,14.509a6.533,6.533,0,1,1,6.532-6.532A6.54,6.54,0,0,1,372.742,489.818Zm-5.026-7.1,3.466-3.466v8.079h-1.429V482.7l-1.028,1.028Zm7.4-3.47h-.484a2.149,2.149,0,0,0-2.143,2.143v3.8a2.149,2.149,0,0,0,2.143,2.143h.484a2.149,2.149,0,0,0,2.143-2.143v-3.8A2.149,2.149,0,0,0,375.119,479.244Zm.714,5.939a.724.724,0,0,1-.714.714h-.484a.724.724,0,0,1-.714-.714v-3.8a.724.724,0,0,1,.714-.714h.484a.724.724,0,0,1,.714.714Z" transform="translate(-350.092 -464.833)"/></g></svg>