<svg xmlns="http://www.w3.org/2000/svg" width="50" height="43.155" viewBox="0 0 50 43.155"><defs><style>.a{fill:#035ec8;}.b{fill:#09388a;}</style></defs><g transform="translate(0 0)"><path class="a" d="M607.041,608.393h10v1.429h-10Zm0,4.286h10V611.25h-10Zm0,2.857h7.143v-1.429h-7.143Zm0,9.661h7.143v-1.429h-7.143Zm15.714-9.661H629.9v-1.429h-7.143Zm0-2.857h10V611.25h-10Zm0-2.857h10v-1.429h-10Zm2.857,15.375h7.143v-1.429h-7.143Zm13.571-22.518v26.8h-1.429V604.107h-1.429v23.946H603.469V604.107h-1.429v25.375h-1.429v-26.8h2.857V601.25h9.286c3.652,0,6.039.947,7.143,2.816,1.1-1.869,3.491-2.816,7.143-2.816h9.286v1.429Zm-20,23.946c0-2-.731-4.286-6.429-4.286H604.9v4.286Zm0-19.661c0-2-.731-4.286-6.429-4.286H604.9v18.232h7.857c3,0,5.145.641,6.429,1.9ZM634.9,622.339h-7.857c-5.7,0-6.429,2.29-6.429,4.286H634.9Zm0-19.661h-7.857c-5.7,0-6.429,2.29-6.429,4.286v15.851c1.284-1.264,3.429-1.9,6.429-1.9H634.9Z" transform="translate(-594.898 -601.25)"/><path class="b" d="M642.612,605.25H636.9v1.429h4.286v29.661H594.041V606.679h4.286V605.25h-5.714v32.518h19.206l-1.744,6.351h-2.533v1.429h20.144v-1.429h-2.534l-1.744-6.351h19.206ZM623.67,644.119H611.555l1.745-6.351h8.624ZM636.9,632.054H595.469V608.107h2.857v1.429H596.9v21.089h41.429V609.536H636.9v-1.429h2.857v23.946Zm-20.416,2.857v-1.429h2.261v1.429Z" transform="translate(-592.612 -602.393)"/></g></svg>