<svg xmlns="http://www.w3.org/2000/svg" width="29.393" height="30" viewBox="0 0 29.393 30"><defs><style>.a{fill:#09388a;}</style></defs><path class="a" d="M19.306,24.611A5.348,5.348,0,0,1,14.08,30H0V28H14.035A3.308,3.308,0,0,0,14,21.384H5.135A5.312,5.312,0,0,1,0,16.043a5.235,5.235,0,0,1,5.245-5.274H8.837l-.756-.886L9.6,8.585l2.7,3.162L9.6,14.908l-1.522-1.3.718-.842H5.31A3.246,3.246,0,0,0,2,15.989a3.283,3.283,0,0,0,3.2,3.4h8.738A5.344,5.344,0,0,1,19.306,24.611ZM29.391,7.875A7.6,7.6,0,0,1,28.046,12.2c-.907,1.4-5.442,7.774-5.635,8.044L21.6,21.39l-.815-1.144c-.192-.27-4.728-6.642-5.651-8.068a7.578,7.578,0,0,1-1.327-4.3c0-.122,0-.244.008-.366A7.705,7.705,0,0,1,21.483,0h.227a7.711,7.711,0,0,1,7.673,7.542C29.388,7.633,29.391,7.755,29.391,7.875Zm-2,0c0-.09,0-.18-.007-.271A5.709,5.709,0,0,0,21.71,2h-.227a5.7,5.7,0,0,0-5.672,5.577c-.005.119-.007.211-.007.3a5.6,5.6,0,0,0,.991,3.189c.678,1.048,3.414,4.916,4.8,6.871,1.386-1.954,4.119-5.817,4.786-6.848A5.629,5.629,0,0,0,27.391,7.875ZM21.6,6.308a1.483,1.483,0,0,1,1.5,1.4v.168A1.494,1.494,0,0,1,21.67,9.334h-.1A1.466,1.466,0,0,1,20.1,7.915V7.767a1.478,1.478,0,0,1,1.388-1.459H21.6m0-2h-.117A3.478,3.478,0,0,0,18.1,7.767v.148a3.479,3.479,0,0,0,3.475,3.418h.157A3.476,3.476,0,0,0,25.1,7.879V7.711a3.484,3.484,0,0,0-3.5-3.4Z" transform="translate(0.002 0.001)"/></svg>