<svg xmlns="http://www.w3.org/2000/svg" width="257" height="125.585" viewBox="0 0 257 125.585"><defs><style>.a,.b{fill:none;}.a{stroke:#11489a;}.b{stroke:#035ec8;stroke-dasharray:5 5;}</style></defs><g transform="translate(0 0.079)"><path class="a" d="M295.885,153.84l-.16-78.021a11.5,11.5,0,0,0-5.191-9.555,12.088,12.088,0,0,0-11.007-1.191l-183.2,70.721a11.578,11.578,0,0,0-7.495,10.774l.087,7.273" transform="translate(-39.385 -28.34)"/><path class="b" d="M250.315,140.237l-.16-95.02a11.5,11.5,0,0,0-5.189-9.559,12.088,12.088,0,0,0-11.01-1.191l-183.2,70.721a11.578,11.578,0,0,0-7.495,10.774l.1,24.276" transform="translate(-19.066 -14.737)"/><path class="a" d="M207.555,125.5,207.4,12.06A11.5,11.5,0,0,0,202.206,2.5,12.088,12.088,0,0,0,191.2,1.309L7.995,72.034A11.578,11.578,0,0,0,.5,82.807L.594,125.5"/></g></svg>