<svg xmlns="http://www.w3.org/2000/svg" width="463" height="225.649" viewBox="0 0 463 225.649">
<defs><style>.a,.b{fill:none;}.a{stroke:#C2C9CC;}.b{stroke:#4F91DF;stroke-dasharray:5 5;}</style></defs><g transform="translate(0 0.139)">
<path class="a" d="M462.5,225.5l-.288-140.44a20.689,20.689,0,0,0-9.369-17.2,21.864,21.864,0,0,0-19.865-2.144L102.356,193.02A20.844,20.844,0,0,0,88.83,212.413l.157,13.091"/>
<path class="b" d="M416.93,225.5l-.288-171.039a20.688,20.688,0,0,0-9.365-17.207,21.864,21.864,0,0,0-19.869-2.144L56.786,162.414A20.844,20.844,0,0,0,43.26,181.807l.174,43.7"/>
<path class="a" d="M374.17,225.5l-.288-204.2A20.687,20.687,0,0,0,364.517,4.1a21.863,21.863,0,0,0-19.869-2.144L14.026,129.263A20.844,20.844,0,0,0,.5,148.656L.67,225.5"/></g>
</svg>