<svg xmlns="http://www.w3.org/2000/svg" width="122.018" height="26" viewBox="0 0 122.018 26"><defs><style>.a{fill:#fff;}.b{fill:#e55030;}</style></defs><g transform="translate(0.001 0.009)"><g transform="translate(-0.001 -0.007)"><g transform="translate(0 6.537)"><path class="a" d="M2.554,22.176c-.126-5.152,8-5.152,7.917-.042a3.71,3.71,0,0,1-3.937,3.854,3.709,3.709,0,0,1-3.979-3.812m-.628-4.649A6.3,6.3,0,0,0,0,22.134V33.821a1.278,1.278,0,0,0,2.555,0V27.328c4.063,3.309,10.681.084,10.472-5.194.168-3.854-3.309-6.534-6.7-6.534a6.142,6.142,0,0,0-4.4,1.927" transform="translate(0.001 -15.6)"/></g><g transform="translate(14.911 0.044)"><path class="a" d="M35.6,1.357V18.279a1.3,1.3,0,0,0,2.22.922,1.232,1.232,0,0,0,.377-.922V1.357A1.218,1.218,0,0,0,36.9.1a1.243,1.243,0,0,0-1.3,1.257" transform="translate(-35.598 -0.1)"/></g><g transform="translate(19.302 6.495)"><path class="a" d="M56.476,21.993a3.834,3.834,0,1,1-7.665,0,3.79,3.79,0,0,1,3.9-3.937,3.712,3.712,0,0,1,3.77,3.937m-8.419-4.566c-5.739,5.613,2.22,14.577,8.5,9.76.042,1.634,2.6,1.717,2.555,0v-5.11A6.441,6.441,0,0,0,52.5,15.5a5.978,5.978,0,0,0-4.44,1.927" transform="translate(-46.079 -15.5)"/></g><g transform="translate(33.929 6.495)"><path class="a" d="M81,19.4a3.664,3.664,0,0,0,3.812,3.9c2.932.419.293,4.4-1.3,1.885-1.927-2.89-3.854.754-1.131,2.513,3.686,3.1,8.629-2.555,5.194-5.822-.963-1.257-2.555-.8-3.686-1.55-1.508-1.466,1.382-3.309,2.136-1.55,2.346,3.56,4.566-2.974-1.215-3.267h-.084A3.691,3.691,0,0,0,81,19.4" transform="translate(-81 -15.5)"/></g><g transform="translate(42.766 0)"><path class="a" d="M106.539,0c-2.22-.126-.963,5.32-1.257,6.493H104.7c-1.089-.042-2.6-.084-2.6,1.3-.042,1.382,1.508,1.34,2.6,1.3h.545V18.26a1.278,1.278,0,1,0,2.555,0V9.045h1.843a1.218,1.218,0,0,0,1.257-1.3,1.218,1.218,0,0,0-1.257-1.3H107.8C107.544,5.359,108.759,0,106.665,0h-.126" transform="translate(-102.098 0.005)"/></g><g transform="translate(52.938 1.301)"><g transform="translate(0 0)"><path class="a" d="M126.432,9.551c.126.335-.377,11.645.377,11.393a1.28,1.28,0,0,0,2.178-.922V9.551a1.278,1.278,0,0,0-2.555,0m1.34-6.451a1.218,1.218,0,0,0-1.257,1.3,1.218,1.218,0,0,0,1.257,1.3,1.2,1.2,0,0,0,1.257-1.3,1.269,1.269,0,0,0-1.257-1.3h0" transform="translate(-126.382 -3.1)"/></g></g><g transform="translate(57.594 0.044)"><path class="a" d="M137.5,1.357V18.279a1.3,1.3,0,0,0,2.22.922,1.232,1.232,0,0,0,.377-.922V1.357A1.218,1.218,0,0,0,138.8.1a1.267,1.267,0,0,0-1.3,1.257" transform="translate(-137.498 -0.1)"/></g><g transform="translate(62.203 1.301)"><g transform="translate(0 0)"><path class="a" d="M148.5,9.551V20.022a1.305,1.305,0,0,0,1.3,1.3,1.27,1.27,0,0,0,1.257-1.3V9.551a1.278,1.278,0,0,0-2.555,0M149.8,3.1a1.218,1.218,0,0,0-1.257,1.3A1.218,1.218,0,0,0,149.8,5.7a1.2,1.2,0,0,0,1.257-1.3A1.218,1.218,0,0,0,149.8,3.1h0" transform="translate(-148.5 -3.1)"/></g></g><g transform="translate(66.596 6.453)"><path class="a" d="M159.076,27.17a1.278,1.278,0,0,0,2.555,0V21.934c-.126-5.152,8-5.11,7.917,0V27.17a1.278,1.278,0,0,0,2.555,0c.293-5.11.251-11.561-6.534-11.77-6.744.209-6.786,6.618-6.493,11.77" transform="translate(-158.987 -15.4)"/></g><g transform="translate(13.949 21.783)"><path class="a" d="M37.321,56.221H36.86l-.8-2.681a3.4,3.4,0,0,1-.126-.461c-.042-.168-.084-.293-.084-.335a7.553,7.553,0,0,1-.209.8l-.8,2.681h-.461L33.3,52.2h.5l.628,2.471c.084.335.168.67.209.963a8.579,8.579,0,0,1,.209-1.005l.712-2.429h.545l.754,2.471a5.511,5.511,0,0,1,.209.963,5.817,5.817,0,0,1,.209-.963l.628-2.471h.5Z" transform="translate(-33.3 -52.116)"/><path class="a" d="M68.362,56.221H66.1V52.2h2.262v.419H66.6v1.3h1.675v.419H66.6V55.8h1.759Z" transform="translate(-52.361 -52.116)"/><path class="a" d="M92.8,52.2h1.131a2.121,2.121,0,0,1,1.173.251.846.846,0,0,1,.377.754.908.908,0,0,1-.209.586.878.878,0,0,1-.586.293v.042c.628.126.922.419.922.963a1,1,0,0,1-.377.838,1.513,1.513,0,0,1-1.005.293H92.8S92.8,52.2,92.8,52.2Zm.461,1.717h.754a1.048,1.048,0,0,0,.712-.168.661.661,0,0,0,.209-.545.6.6,0,0,0-.251-.5,1.673,1.673,0,0,0-.754-.168h-.67Zm0,.419v1.508H94.1a1.017,1.017,0,0,0,.754-.209.7.7,0,0,0,.251-.586.622.622,0,0,0-.251-.545,1.259,1.259,0,0,0-.754-.168Z" transform="translate(-67.877 -52.116)"/><path class="a" d="M145.313,55.116a1.055,1.055,0,0,1-.377.838,1.561,1.561,0,0,1-1.047.293,2.581,2.581,0,0,1-1.089-.168v-.461a2.074,2.074,0,0,0,.545.168,2.766,2.766,0,0,0,.586.042,1.2,1.2,0,0,0,.712-.168.6.6,0,0,0,.251-.5.789.789,0,0,0-.084-.335.908.908,0,0,0-.293-.251,2.7,2.7,0,0,0-.586-.251,1.99,1.99,0,0,1-.8-.461.985.985,0,0,1-.251-.712,1.049,1.049,0,0,1,.335-.754,1.609,1.609,0,0,1,.922-.293,2.966,2.966,0,0,1,1.089.209l-.126.419a2.859,2.859,0,0,0-.963-.209.819.819,0,0,0-.586.168.6.6,0,0,0-.209.461.789.789,0,0,0,.084.335.711.711,0,0,0,.251.251,2.241,2.241,0,0,0,.545.251,2.111,2.111,0,0,1,.88.5A.867.867,0,0,1,145.313,55.116Z" transform="translate(-96.934 -52.058)"/><path class="a" d="M170.417,56.221h-.461v-3.6H168.7V52.2h3.016v.419h-1.257l-.042,3.6Z" transform="translate(-111.985 -52.116)"/><path class="a" d="M199.458,52.142v2.6a1.362,1.362,0,0,1-.419,1.089,1.676,1.676,0,0,1-1.131.377,1.536,1.536,0,0,1-1.131-.377,1.5,1.5,0,0,1-.377-1.089v-2.6h.461v2.639a.9.9,0,0,0,.293.754,1.134,1.134,0,0,0,.8.251,1.208,1.208,0,0,0,.8-.251,1.073,1.073,0,0,0,.293-.8V52.1h.419Z" transform="translate(-128.082 -52.058)"/><path class="a" d="M228.625,54.169a1.9,1.9,0,0,1-.545,1.508,2.242,2.242,0,0,1-1.55.545H225.4V52.2h1.215a2.008,2.008,0,0,1,1.466.5A1.928,1.928,0,0,1,228.625,54.169Zm-.5.042a1.578,1.578,0,0,0-.377-1.173,1.657,1.657,0,0,0-1.173-.419h-.67v3.225h.586a1.692,1.692,0,0,0,1.257-.419A1.832,1.832,0,0,0,228.123,54.211Z" transform="translate(-144.935 -52.116)"/><path class="a" d="M254.4,56.221V52.2h.461v4.021Z" transform="translate(-161.788 -52.116)"/><path class="a" d="M280.428,54.094a2.186,2.186,0,0,1-.5,1.508,1.709,1.709,0,0,1-1.34.545A1.741,1.741,0,0,1,277.2,55.6a2.226,2.226,0,0,1-.5-1.55,2.048,2.048,0,0,1,.5-1.508A1.741,1.741,0,0,1,278.585,52a1.6,1.6,0,0,1,1.34.545A2.045,2.045,0,0,1,280.428,54.094Zm-3.183,0a2.137,2.137,0,0,0,.335,1.257,1.242,1.242,0,0,0,1.005.419,1.139,1.139,0,0,0,1.005-.419,2.137,2.137,0,0,0,.335-1.257,1.911,1.911,0,0,0-.335-1.215,1.255,1.255,0,0,0-1.005-.419,1.139,1.139,0,0,0-1.005.419A1.911,1.911,0,0,0,277.245,54.094Z" transform="translate(-174.747 -52)"/></g></g><g transform="translate(89.88 -0.009)"><path class="b" d="M227.615,27.2c.084,1.717-2.513,1.634-2.555,0-6.283,4.817-14.242-4.147-8.5-9.76,3.854-4.147,11.351-1.089,11.058,4.649V27.2Zm-6.409-1.257c5.068.168,4.985-7.959,0-7.875-5.11-.084-5.278,8.042,0,7.875" transform="translate(-214.579 -9.019)"/><path class="b" d="M252.463,27.049a1.278,1.278,0,0,1-2.555,0V21.813c-.838-3.6,6.492-9.257,7.833-5.236a1.333,1.333,0,0,1-1.3,1.3c-4.817-.126-3.937,6.032-3.979,9.173" transform="translate(-235.071 -8.825)"/><path class="b" d="M277.839,6.487a1.278,1.278,0,0,1,0,2.555H276v9.173a1.333,1.333,0,0,1-1.3,1.3,1.3,1.3,0,0,1-1.257-1.3V9.042c-1.047,0-3.183.335-3.142-1.3-.042-1.592,2.136-1.257,3.142-1.257.293-1.173-.963-6.618,1.257-6.493,2.22-.168,1.005,5.32,1.3,6.493Z" transform="translate(-246.959 0.009)"/></g></g></svg>