<svg xmlns="http://www.w3.org/2000/svg" width="28" height="22" viewBox="0 0 28 22"><defs><style>.a{fill:#fff;}</style></defs><path class="a" d="M27.727,0H2.272A1.352,1.352,0,0,0,1,1.419V20.581A1.352,1.352,0,0,0,2.272,22H27.727A1.353,1.353,0,0,0,29,20.581V1.419A1.353,1.353,0,0,0,27.727,0Zm-.594,20H2.867V2H27.133Zm-2-3.725V18H24l-5.272-5.746-.494.515a4.39,4.39,0,0,1-6.476-.005l-.488-.509L6,18H4.867V16.276l5.018-5.468L4.867,5.572V4H6.131l7.077,7.384a2.435,2.435,0,0,0,3.574.01L23.869,4h1.264V5.571l-5.018,5.236Z" transform="translate(-1)"/></svg>