<svg xmlns="http://www.w3.org/2000/svg" width="50" height="35" viewBox="0 0 50 35"><defs><style>.a{fill:#fff;}.b{fill:#035ec8;}</style></defs><g transform="translate(0)"><path class="a" d="M-916.134-481.979h-5.319a.5.5,0,0,0-.331-.06c-.685-.01-1.37-.008-2.054-.025-1.363-.035-2.726-.079-4.089-.12-.9-.027-1.794-.052-2.692-.083-1.438-.05-2.875-.1-4.313-.156a23.5,23.5,0,0,1-2.409-.172,10.98,10.98,0,0,1-2.211-.519,5.568,5.568,0,0,1-3.362-3.038,11.492,11.492,0,0,1-1.025-3.982c-.042-.644-.126-1.286-.181-1.93-.06-.7-.121-1.391-.158-2.087-.041-.754-.065-1.509-.079-2.264-.026-1.424-.052-2.847-.052-4.271,0-1.012.031-2.024.064-3.036q.036-1.1.113-2.193c.052-.742.121-1.482.193-2.222a20.481,20.481,0,0,1,.313-2.241,10.07,10.07,0,0,1,1.071-2.939,5.75,5.75,0,0,1,3.266-2.7,8.774,8.774,0,0,1,1.873-.371c1.208-.13,2.419-.208,3.632-.26q1.44-.061,2.881-.1c1.927-.053,3.854-.1,5.781-.148.851-.022,1.7-.075,2.554-.071,2.336.01,4.672-.055,7.007.036.293.011.587.015.88.023q2.019.051,4.038.1,2.554.07,5.108.146c1.288.036,2.577.079,3.859.214a13.647,13.647,0,0,1,1.772.273,5.763,5.763,0,0,1,4,3.125,11.6,11.6,0,0,1,.9,2.549,16.76,16.76,0,0,1,.273,2.125c.071.682.135,1.366.187,2.05.062.833.126,1.666.156,2.5.035.977.035,1.956.052,2.934a1.2,1.2,0,0,0,.025.164v3.6a1.121,1.121,0,0,0-.025.164c0,1.265-.055,2.527-.141,3.789-.076,1.107-.174,2.212-.312,3.313a13.421,13.421,0,0,1-.764,3.107,6.134,6.134,0,0,1-1.463,2.339,6.273,6.273,0,0,1-3.595,1.744c-.5.065-1.007.1-1.511.141-.97.07-1.939.142-2.91.191s-1.943.074-2.915.1c-1.242.036-2.484.067-3.727.1C-912.98-482.1-915.888-482-916.134-481.979Z" transform="translate(944.41 516.979)"/><path class="b" d="M-920.555-504.972v11.235l10.961-5.6Z" transform="translate(942.302 516.247)"/></g></svg>