<svg version="1.0" xmlns="http://www.w3.org/2000/svg">

<symbol id="arrow-btn" viewBox="0 0 6 10">
  <path d="M5,0l5,6H0Z" transform="translate(6) rotate(90)"/>
</symbol>

<symbol id="arrow-btn-left" viewBox="0 0 6 10">
  <path d="M5,0l5,6H0Z" transform="translate(0 10) rotate(-90)"/>
</symbol>

<symbol id="courses-name" viewBox="0 0 20 20">
  <path d="M186.9,105.908a4.8,4.8,0,0,1-1.437,1.02,12.732,12.732,0,0,1-2.931.991,19.612,19.612,0,0,1-2.994.437c-.706.048-1.412.073-2.119.109a29.121,29.121,0,0,1-3.561-.26,17.554,17.554,0,0,1-3.665-.863,7.211,7.211,0,0,1-1.917-.993,2.9,2.9,0,0,1-.626-.634,1.426,1.426,0,0,1-.253-1.192,15.322,15.322,0,0,1,.554-1.88,2.028,2.028,0,0,1,.718-.881,12.318,12.318,0,0,1,2.1-1.247c.756-.373,1.539-.681,2.323-.981a7.8,7.8,0,0,0,1,.956,4.881,4.881,0,0,0,2.939,1.157l.306,0a4.7,4.7,0,0,0,2.15-.441,6.386,6.386,0,0,0,1.523-1.036c.218-.2.422-.412.616-.629a23.714,23.714,0,0,1,3.917,1.854c.143.086.279.184.416.281a2.334,2.334,0,0,1,.916,1.258c.149.5.293,1,.429,1.5A1.5,1.5,0,0,1,186.9,105.908Zm-4.781-13.3a4.965,4.965,0,0,0-2.622-3.581,4.383,4.383,0,0,0-2.992-.47,5.112,5.112,0,0,0-4.011,4.884,7.108,7.108,0,0,0,.454,2.642,6.832,6.832,0,0,0,2.171,3.1,3.256,3.256,0,0,0,1.949.8,3.459,3.459,0,0,0,1.674-.262,4.835,4.835,0,0,0,1.133-.767,7.384,7.384,0,0,0,2.35-5.348A9.533,9.533,0,0,0,182.118,92.6Z" transform="translate(-167.356 -88.465)"
  fill="#428ce2"/>
</symbol>

<symbol id="courses-type" viewBox="0 0 18 18">
  <path d="M229.4,75.423v18h18v-18Zm12,14.5h-9v-1.5h9Zm3-4.75h-12v-1.5h12Zm0-4.75h-12v-1.5h12Z" transform="translate(-229.396 -75.423)"
   fill="#428ce2"/>
</symbol>

<symbol id="courses-education" viewBox="0 0 22 17.727">
  <path d="M62.168,102.174l5.225-2.612v4.882l-5.225,2.613-7.032-3.517h-.008V98.654Zm0-12.845-11,5.5,2.378,1.189,8.622-4.311,8.525,4.262.1.047,2.375-1.188ZM55.391,96.94l6.777,3.389,6.778-3.389-6.778-3.389Zm13.555,6.729,1.847-.924V96.018l-1.847.922Z" transform="translate(-51.168 -89.329)"
  />
</symbol>

<symbol id="courses-document" viewBox="0 0 15.555 22">
  <path d="M102.4,94.947v-7.5H94.348v22H109.9v-14.5Zm5.3,9.822H96.548v-1.65H107.7Zm0-3.3H96.548v-1.65H107.7ZM104.05,93.3V88.335l4.962,4.962Z" transform="translate(-94.348 -87.444)"
  />
</symbol>
<symbol id="contact-clock" viewBox="0 0 20 20">
  <path d="M145.335,88.444a10,10,0,1,0,10,10A10,10,0,0,0,145.335,88.444Zm0,17.5a7.495,7.495,0,0,1-2.5-14.562V93.2a5.82,5.82,0,1,0,7.749,7.749H152.4A7.506,7.506,0,0,1,145.335,105.944Zm-.833-6.667V90.993a7.127,7.127,0,0,1,1.667,0v6.618h6.618a7.125,7.125,0,0,1,0,1.667Z" transform="translate(-135.335 -88.444)"
  fill="#09388a"/>
</symbol>

<symbol id="courses-clock" viewBox="0 0 20 20">
  <path d="M145.335,88.444a10,10,0,1,0,10,10A10,10,0,0,0,145.335,88.444Zm0,17.5a7.495,7.495,0,0,1-2.5-14.562V93.2a5.82,5.82,0,1,0,7.749,7.749H152.4A7.506,7.506,0,0,1,145.335,105.944Zm-.833-6.667V90.993a7.127,7.127,0,0,1,1.667,0v6.618h6.618a7.125,7.125,0,0,1,0,1.667Z" transform="translate(-135.335 -88.444)"
  fill="#428ce2"/>
</symbol>

<symbol id="courses-price" viewBox="0 0 20 20">
  <path d="M208.38,90.033a10,10,0,1,0,10,10A10,10,0,0,0,208.38,90.033Zm.879,11.491h-.751V99.857h.751a2.323,2.323,0,1,0,0-4.646h-2.417v7.979h3.884v1.667h-3.884v1.664h-1.667v-1.664h-1.663v-1.667h1.663V93.545h4.083a3.989,3.989,0,1,1,0,7.979Z" transform="translate(-198.38 -90.033)"
  fill="#428ce2"/>
</symbol>

<symbol id="contact-address" viewBox="0 0 29.393 30">
  <path d="M19.306,24.611A5.348,5.348,0,0,1,14.08,30H0V28H14.035A3.308,3.308,0,0,0,14,21.384H5.135A5.312,5.312,0,0,1,0,16.043a5.235,5.235,0,0,1,5.245-5.274H8.837l-.756-.886L9.6,8.585l2.7,3.162L9.6,14.908l-1.522-1.3.718-.842H5.31A3.246,3.246,0,0,0,2,15.989a3.283,3.283,0,0,0,3.2,3.4h8.738A5.344,5.344,0,0,1,19.306,24.611ZM29.391,7.875A7.6,7.6,0,0,1,28.046,12.2c-.907,1.4-5.442,7.774-5.635,8.044L21.6,21.39l-.815-1.144c-.192-.27-4.728-6.642-5.651-8.068a7.578,7.578,0,0,1-1.327-4.3c0-.122,0-.244.008-.366A7.705,7.705,0,0,1,21.483,0h.227a7.711,7.711,0,0,1,7.673,7.542C29.388,7.633,29.391,7.755,29.391,7.875Zm-2,0c0-.09,0-.18-.007-.271A5.709,5.709,0,0,0,21.71,2h-.227a5.7,5.7,0,0,0-5.672,5.577c-.005.119-.007.211-.007.3a5.6,5.6,0,0,0,.991,3.189c.678,1.048,3.414,4.916,4.8,6.871,1.386-1.954,4.119-5.817,4.786-6.848A5.629,5.629,0,0,0,27.391,7.875ZM21.6,6.308a1.483,1.483,0,0,1,1.5,1.4v.168A1.494,1.494,0,0,1,21.67,9.334h-.1A1.466,1.466,0,0,1,20.1,7.915V7.767a1.478,1.478,0,0,1,1.388-1.459H21.6m0-2h-.117A3.478,3.478,0,0,0,18.1,7.767v.148a3.479,3.479,0,0,0,3.475,3.418h.157A3.476,3.476,0,0,0,25.1,7.879V7.711a3.484,3.484,0,0,0-3.5-3.4Z" transform="translate(0.002 0.001)"
  fill="#09388A"/>
</symbol>

<symbol id="contact-phone" viewBox="0 0 28.029 28.028">
  <path d="M23.677,28.028,23.121,28c-1.253-.066-7.869-.762-15.1-7.992h0C.805,12.78.1,6.16.03,4.906L0,4.35l.458-.319A17.061,17.061,0,0,1,6.086,1.475l.565-.142.4.422A21.041,21.041,0,0,1,11.094,7.82l.275.626L8.936,10.877a13.455,13.455,0,0,0,3.36,4.791,13.627,13.627,0,0,0,4.856,3.424l2.427-2.436.627.277a20.962,20.962,0,0,1,6.065,4.044l.421.4-.141.563A17.066,17.066,0,0,1,24,27.571ZM9.436,18.593c5.951,5.95,11.441,7.125,13.238,7.355a15.078,15.078,0,0,0,1.784-3.925,18.956,18.956,0,0,0-4.438-2.975l-2.36,2.368-.6-.215a15.468,15.468,0,0,1-6.18-4.12,15.321,15.321,0,0,1-4.055-6.113l-.214-.6L8.979,8.007A19.047,19.047,0,0,0,6.006,3.568,15.057,15.057,0,0,0,2.082,5.352c.232,1.8,1.415,7.294,7.355,13.241Zm18.593-5.315h-2A11.29,11.29,0,0,0,14.751,2V0A13.294,13.294,0,0,1,28.029,13.278Zm-3.611,0h-2c0-4.658-3.01-7.667-7.667-7.667v-2C20.533,3.611,24.418,7.5,24.418,13.278Zm-3.611,0h-2a4.061,4.061,0,0,0-4.056-4.056v-2A6.063,6.063,0,0,1,20.807,13.278Z"
  fill="#09388A"/>
</symbol>

<symbol id="contact-mail" viewBox="0 0 28 22">
  <path d="M27.727,0H2.272A1.352,1.352,0,0,0,1,1.419V20.581A1.352,1.352,0,0,0,2.272,22H27.727A1.353,1.353,0,0,0,29,20.581V1.419A1.353,1.353,0,0,0,27.727,0Zm-.594,20H2.867V2H27.133Zm-2-3.725V18H24l-5.272-5.746-.494.515a4.39,4.39,0,0,1-6.476-.005l-.488-.509L6,18H4.867V16.276l5.018-5.468L4.867,5.572V4H6.131l7.077,7.384a2.435,2.435,0,0,0,3.574.01L23.869,4h1.264V5.571l-5.018,5.236Z" transform="translate(-1)"
  fill="#09388A"/>
</symbol>

<symbol id="arrow-fscr" viewBox="0 0 35.31 10">
  <path class="a" d="M29.81.672l6,5-6,5" transform="translate(0 -0.44)"/><rect class="a" width="30" height="2" transform="translate(0.5 4.232)"/>
</symbol>



</svg>
